<svg id="Capa_1" enable-background="new 0 0 512 512" height="108" viewBox="0 0 512 512" width="108" xmlns="http://www.w3.org/2000/svg"><g><path d="m256 91c-90.901 0-165 74.099-165 165 0 90.899 74.099 165 165 165s165-74.101 165-165c0-90.901-74.099-165-165-165z" fill="#fed843"/><path d="m421 256c0 90.899-74.099 165-165 165v-330c90.901 0 165 74.099 165 165z" fill="#fabe2c"/><path d="m331 256c0 41.4-33.6 75-75 75s-75-33.6-75-75c0-8.401 6.599-15 15-15s15 6.599 15 15c0 24.899 20.099 45 45 45s45-20.101 45-45c0-8.401 6.599-15 15-15s15 6.599 15 15z" fill="#fabe2c"/><circle cx="196" cy="196" fill="#6d1d40" r="15"/><circle cx="316" cy="196" fill="#58072a" r="15"/><path d="m82.533 136.85-28.345-22.603c-6.489-5.171-7.544-14.604-2.388-21.079 5.171-6.489 14.59-7.559 21.079-2.388l28.345 22.603c6.489 5.171 7.544 14.604 2.388 21.079-5.2 6.507-14.638 7.526-21.079 2.388z" fill="#fed843"/><path d="m439.12 421.22-28.345-22.603c-6.489-5.171-7.544-14.604-2.388-21.079 5.171-6.475 14.604-7.544 21.079-2.388l28.345 22.603c6.489 5.171 7.544 14.604 2.388 21.079-5.201 6.508-14.638 7.526-21.079 2.388z" fill="#fabe2c"/><g fill="#fed843"><path d="m271 15v31c0 8.399-6.599 15-15 15s-15-6.601-15-15v-31c0-8.401 6.599-15 15-15s15 6.599 15 15z"/><path d="m271 466v31c0 8.399-6.599 15-15 15s-15-6.601-15-15v-31c0-8.401 6.599-15 15-15s15 6.599 15 15z"/><path d="m47.904 223.891-36.244-8.057c-8.086-1.846-13.125-9.888-11.279-17.959 1.831-8.086 9.829-13.14 17.959-11.279l36.244 8.057c8.086 1.846 13.125 9.888 11.279 17.959-1.871 8.229-10.087 13.119-17.959 11.279z"/></g><path d="m493.66 325.404-36.244-8.057c-8.086-1.846-13.125-9.888-11.279-17.959 1.831-8.086 9.873-13.14 17.959-11.279l36.244 8.057c8.086 1.846 13.125 9.888 11.279 17.959-1.871 8.23-10.087 13.119-17.959 11.279z" fill="#fabe2c"/><path d="m340.609 80.336c-7.471-3.604-10.605-12.568-7.017-20.024l15.703-32.607c3.618-7.456 12.598-10.605 20.024-7.017 7.471 3.604 10.605 12.568 7.017 20.024l-15.703 32.607c-3.65 7.57-12.695 10.553-20.024 7.017z" fill="#fabe2c"/><path d="m142.68 491.313c-7.471-3.604-10.605-12.568-7.017-20.024l15.703-32.607c3.633-7.471 12.583-10.576 20.024-7.017 7.471 3.604 10.605 12.568 7.017 20.024l-15.703 32.607c-3.651 7.569-12.695 10.553-20.024 7.017z" fill="#fed843"/><path d="m151.366 73.319-15.703-32.607c-3.589-7.456-.454-16.421 7.017-20.024 7.471-3.589 16.436-.439 20.024 7.017l15.703 32.607c3.589 7.456.454 16.421-7.017 20.024-7.332 3.538-16.375.55-20.024-7.017z" fill="#fed843"/><path d="m349.296 484.296-15.703-32.607c-3.589-7.456-.454-16.421 7.017-20.024 7.485-3.56 16.436-.454 20.024 7.017l15.703 32.607c3.589 7.456.454 16.421-7.017 20.024-7.332 3.538-16.375.549-20.024-7.017z" fill="#fabe2c"/><path d="m51.801 418.832c-5.156-6.475-4.102-15.908 2.388-21.079l28.345-22.603c6.475-5.156 15.908-4.087 21.079 2.388 5.156 6.475 4.102 15.908-2.388 21.079l-28.345 22.603c-6.434 5.133-15.873 4.126-21.079-2.388z" fill="#fed843"/><path d="m408.388 134.462c-5.156-6.475-4.102-15.908 2.388-21.079l28.344-22.603c6.46-5.171 15.894-4.102 21.079 2.388 5.156 6.475 4.102 15.908-2.388 21.079l-28.345 22.603c-6.433 5.133-15.873 4.126-21.078-2.388z" fill="#fabe2c"/><path d="m.381 314.125c-1.846-8.071 3.193-16.113 11.279-17.959l36.244-8.057c7.998-1.86 16.113 3.193 17.959 11.279 1.846 8.071-3.193 16.113-11.279 17.959l-36.244 8.057c-7.876 1.841-16.089-3.053-17.959-11.279z" fill="#fed843"/><path d="m446.137 212.611c-1.846-8.071 3.193-16.113 11.279-17.959l36.244-8.057c8.042-1.86 16.113 3.193 17.959 11.279 1.846 8.071-3.193 16.113-11.279 17.959l-36.244 8.057c-7.876 1.842-16.089-3.052-17.959-11.279z" fill="#fabe2c"/><path d="m256 61v-61c8.401 0 15 6.599 15 15v31c0 8.399-6.599 15-15 15z" fill="#fabe2c"/><path d="m271 466v31c0 8.399-6.599 15-15 15v-61c8.401 0 15 6.599 15 15z" fill="#fabe2c"/><path d="m331 256c0 41.4-33.6 75-75 75v-30c24.901 0 45-20.101 45-45 0-8.401 6.599-15 15-15s15 6.599 15 15z" fill="#ff9100"/></g></svg>